<?xml version="1.0" standalone="no"?><svg xmlns="http://www.w3.org/2000/svg" viewBox="0 0 1440 320"><path fill="#FFC759" fill-opacity="1" d="M0,224L8.9,229.3C17.8,235,36,245,53,218.7C71.1,192,89,128,107,96C124.4,64,142,64,160,69.3C177.8,75,196,85,213,112C231.1,139,249,181,267,197.3C284.4,213,302,203,320,218.7C337.8,235,356,277,373,261.3C391.1,245,409,171,427,149.3C444.4,128,462,160,480,186.7C497.8,213,516,235,533,218.7C551.1,203,569,149,587,149.3C604.4,149,622,203,640,224C657.8,245,676,235,693,192C711.1,149,729,75,747,90.7C764.4,107,782,213,800,229.3C817.8,245,836,171,853,122.7C871.1,75,889,53,907,64C924.4,75,942,117,960,112C977.8,107,996,53,1013,80C1031.1,107,1049,213,1067,245.3C1084.4,277,1102,235,1120,208C1137.8,181,1156,171,1173,160C1191.1,149,1209,139,1227,133.3C1244.4,128,1262,128,1280,154.7C1297.8,181,1316,235,1333,261.3C1351.1,288,1369,288,1387,293.3C1404.4,299,1422,309,1431,314.7L1440,320L1440,320L1431.1,320C1422.2,320,1404,320,1387,320C1368.9,320,1351,320,1333,320C1315.6,320,1298,320,1280,320C1262.2,320,1244,320,1227,320C1208.9,320,1191,320,1173,320C1155.6,320,1138,320,1120,320C1102.2,320,1084,320,1067,320C1048.9,320,1031,320,1013,320C995.6,320,978,320,960,320C942.2,320,924,320,907,320C888.9,320,871,320,853,320C835.6,320,818,320,800,320C782.2,320,764,320,747,320C728.9,320,711,320,693,320C675.6,320,658,320,640,320C622.2,320,604,320,587,320C568.9,320,551,320,533,320C515.6,320,498,320,480,320C462.2,320,444,320,427,320C408.9,320,391,320,373,320C355.6,320,338,320,320,320C302.2,320,284,320,267,320C248.9,320,231,320,213,320C195.6,320,178,320,160,320C142.2,320,124,320,107,320C88.9,320,71,320,53,320C35.6,320,18,320,9,320L0,320Z"></path></svg>